<?xml version="1.0" standalone="no"?>
<!DOCTYPE svg PUBLIC "-//W3C//DTD SVG 20010904//EN"
 "http://www.w3.org/TR/2001/REC-SVG-20010904/DTD/svg10.dtd">
<svg version="1.0" xmlns="http://www.w3.org/2000/svg"
 width="259.000000pt" height="259.000000pt" viewBox="0 0 259.000000 259.000000"
 preserveAspectRatio="xMidYMid meet">
<metadata>
Created by potrace 1.14, written by Peter Selinger 2001-2017
</metadata>
<g transform="translate(0.000000,259.000000) scale(0.100000,-0.100000)"
fill="#000000" stroke="none">
<path d="M1039 2372 c-15 -2 -41 -16 -60 -33 -18 -16 -34 -29 -36 -29 -2 0
-11 8 -22 19 -13 13 -29 17 -62 15 -66 -6 -75 -8 -93 -27 -10 -9 -22 -17 -28
-17 -5 0 -7 -7 -4 -16 3 -8 2 -12 -4 -9 -6 3 -10 -4 -10 -18 0 -20 -5 -23 -32
-23 -18 1 -34 -3 -35 -7 -6 -15 -3 -110 3 -104 3 3 15 -3 27 -14 11 -10 26
-19 33 -19 6 0 11 -8 11 -17 0 -42 4 -52 21 -57 14 -5 19 -17 21 -49 6 -140 9
-176 15 -185 3 -6 2 -13 -4 -17 -6 -4 -7 -12 -1 -22 5 -9 5 -29 1 -45 -5 -15
-5 -30 -1 -32 6 -4 8 -52 14 -331 2 -55 6 -106 10 -112 5 -7 4 -13 -2 -13 -9
0 -5 -49 4 -59 2 -2 0 -12 -6 -22 -6 -12 -6 -19 0 -19 6 0 6 -11 1 -29 -4 -16
-6 -32 -2 -35 3 -4 7 -72 8 -151 3 -141 2 -145 -18 -145 -12 0 -19 -2 -16 -6
3 -3 -1 -26 -9 -52 -15 -50 -16 -249 -1 -258 4 -3 8 -14 8 -25 0 -19 37 -42
53 -32 4 2 7 -14 7 -37 0 -23 4 -49 9 -59 5 -9 6 -23 2 -30 -15 -24 11 -71 44
-79 24 -7 245 -7 265 -1 3 1 9 1 13 0 13 -2 341 -3 352 -1 6 2 12 1 15 0 3 -1
39 -3 80 -5 56 -1 84 3 110 16 19 10 29 18 22 19 -7 0 -10 5 -6 11 7 13 11 46
13 119 1 42 3 46 28 48 30 2 33 5 37 24 2 7 7 22 11 32 5 11 8 67 8 125 0 109
-18 188 -41 184 -9 -2 -10 64 -7 275 9 458 11 511 17 518 4 3 3 17 -2 30 -6
16 -6 24 1 24 6 0 6 6 0 19 -6 10 -7 21 -4 25 10 10 9 66 -2 66 -6 0 -6 3 0 8
6 4 11 43 12 87 5 172 13 225 38 225 7 0 13 12 13 26 0 20 30 64 44 64 35 1
44 14 43 56 -3 56 -13 68 -67 73 -5 1 -7 4 -7 9 4 24 -3 43 -18 49 -10 4 -25
15 -33 24 -10 11 -34 19 -68 22 -45 3 -56 0 -70 -17 -17 -20 -49 -35 -38 -18
3 5 -6 14 -19 20 -14 7 -25 16 -25 21 0 14 -59 23 -156 25 -50 1 -84 -3 -84
-9 0 -7 -3 -7 -8 0 -8 12 -171 13 -189 2 -7 -5 -13 -4 -13 0 0 8 -60 11 -111
5z"/>
</g>
</svg>
